<?xml version="1.0" encoding="UTF-8"?>
<svg id="Layer_1" xmlns="http://www.w3.org/2000/svg" version="1.1" viewBox="0 0 1080 1080">
  <!-- Generator: Adobe Illustrator 29.3.0, SVG Export Plug-In . SVG Version: 2.1.0 Build 146)  -->
  <defs>
    <style>
      .st0 {
        fill: #3c74ba;
      }
    </style>
  </defs>
  <path class="st0" d="M462.32,697.41c-12.16-5.98-23.76-13.47-34.52-22.45-4.1-3.37-8.07-7-11.9-10.83-35.05-35.05-52.16-81.38-51.28-127.41.81-43.85,17.9-87.44,51.28-120.82,33.37-33.37,76.97-50.47,120.81-51.27,46.03-.87,92.36,16.23,127.41,51.28,13.93,13.93,25.03,29.65,33.28,46.42,11.53,23.4,17.53,48.85,17.99,74.39h142.71s17.94,0,17.94,0c-.34-35.7-6.32-71.36-17.94-105.51-16.03-47.15-42.82-91.4-80.35-128.94-13.02-13.02-26.85-24.74-41.33-35.17-131.32-94.64-316.08-82.92-434.16,35.16-131.09,131.09-131.1,344.4,0,475.5,64.7,64.7,149.46,97.46,234.44,98.29v-160.65c-25.54-.45-51-6.45-74.39-17.99Z"/>
  <rect class="st0" x="697.41" y="697.42" width="160.7" height="160.7"/>
</svg>